<?xml version="1.0" encoding="utf-8"?>
<!-- Generator: Adobe Illustrator 28.0.0, SVG Export Plug-In . SVG Version: 6.00 Build 0)  -->
<svg version="1.1" id="Layer_1" xmlns="http://www.w3.org/2000/svg" xmlns:xlink="http://www.w3.org/1999/xlink" x="0px" y="0px"
	 viewBox="0 0 876.79 698.69" xml:space="preserve" fill="currentColor">
<path class="st0" d="M343.24,174.96c0,39.93,22.86,49.98,65.22,49.98l118.6-0.01V103.42c0.55-0.88,0.47-12.28,18.02-12.28
	c23.5,0,19.88,17.86,19.88,39.61v94.18l73.24,0.01v-94.48c0-44.8-26.68-57.91-65.1-57.91c-23.1,0-46.03,6.69-46.03,6.69V0
	l-73.46,0.01v72.54H416.7V30.18h-73.46v42.37h-27.43v18.59h27.43V174.96z M416.7,91.14h36.91v112.7c-3.37,0.39-6.89,0.68-10.7,0.68
	c-18.9,0-26.21-3.96-26.21-22.86V91.14z M774.69,71.33c-56.08,0-105.45,22.56-105.45,78.33c0,61.87,50.29,77.42,119.78,77.42
	c29.56,0,53.95-2.13,79.55-6.09V203.3c-24.38,2.44-46.63,3.66-71.02,3.66c-42.67,0-56.39-7.62-57.3-45.72h135.02
	c0.91-5.48,1.52-10.06,1.52-14.93C876.79,95.11,839.61,71.33,774.69,71.33z M740.25,142.35c0.61-40.54,10.37-50.9,34.44-50.9
	c26.51,0,34.75,10.67,35.36,50.9H740.25z M82.54,481.32c-30.48,0-57.61-3.96-78.63-7.62v-18.59c20.42,2.74,38.71,4.57,58.52,4.57
	c35.96,0,48.46-10.97,48.46-45.41V253.95h76.8v151.17C187.69,467,147.15,481.32,82.54,481.32z M229.68,422.5v-93.87h73.61
	l0.47,93.26c-0.28,13.86-0.28,33.19,19.78,33.23c4.62,0.01,13.45-1.59,18.39-3.24V328.62l73.63,0.01v150.26l-73.63-0.01v-18.59
	c-11.77,11.58-22.84,21.95-46.37,21.95C256.61,482.24,229.68,467,229.68,422.5z M453.61,253.95h73.46v224.93h-73.46V253.95z
	 M565.44,328.63h73.45v150.26h-73.45V328.63z M565.44,260.66h73.45v45.72h-73.45V260.66z M772.36,326.49
	c-25.3,0-53.95,2.75-75.89,5.79v17.68c19.81-2.13,37.79-3.66,55.17-3.66c35.97,0,50.29,3.66,50.29,31.09v10.36h-49.68
	c-55.17,0-81.38,14.32-81.38,47.55c0,29.56,25.3,46.63,70.4,46.63c23.16,0,45.72-5.48,60.65-12.8v9.75h70.1v-97.84
	C872.03,341.43,843.69,326.49,772.36,326.49z M801.92,456.64c-7.92,2.44-18.59,3.66-29.26,3.66c-21.03,0-31.09-6.1-31.09-28.04
	c0-21.94,9.15-28.04,32.31-28.04h28.04V456.64z M187.75,644.44c0,39.93-36.58,54.25-110.03,54.25c-25.91,0-56.08-3.35-77.72-6.4
	v-17.68c22.86,2.74,49.07,4.57,76.81,4.57c39.01,0,48.16-5.18,48.16-16.15c0-5.79-2.13-9.14-7.32-11.58
	c-7.32-2.74-19.51-4.27-38.1-6.09c-25.91-2.75-46.94-6.1-59.13-14.63c-13.41-7.92-17.98-18.9-17.98-34.44
	c0-39.01,35.97-51.82,98.75-51.82c25.6,0,52.73,2.75,71.93,5.49v17.68c-21.33-2.44-45.72-3.96-66.75-3.96
	c-33.53,0-41.45,4.88-41.45,14.63c0,5.79,1.83,9.14,6.7,11.58c6.1,3.35,17.68,4.57,37.79,6.4c24.69,2.44,44.8,5.48,57.6,11.89
	C182.26,615.79,187.75,627.06,187.75,644.44z M324.93,542.94c-52.03,0-97.83,22.56-97.83,78.33c0,61.87,46.65,77.42,111.12,77.42
	c27.43,0,50.05-2.13,73.8-6.09v-17.68c-22.62,2.44-43.26,3.66-65.88,3.66c-39.58,0-52.31-7.62-53.15-45.72h125.25
	c0.85-5.48,1.41-10.06,1.41-14.93C419.65,566.71,385.15,542.94,324.93,542.94z M292.98,613.96c0.57-40.54,9.61-50.9,31.95-50.9
	c24.6,0,32.23,10.67,32.8,50.9H292.98z M554.69,678.27c7.01,0,13.1-0.91,18.9-1.83v17.68c-16.76,3.05-35.05,4.57-53.34,4.57
	c-42.36,0-65.22-10.06-65.22-49.98v-83.81h-27.44v-18.59h27.44v-42.37h73.45v42.37h44.81v18.59h-44.81v90.52
	C528.47,674.3,535.79,678.27,554.69,678.27z"/>
</svg>
